<?xml version="1.0" encoding="UTF-8"?>
<svg width="22px" height="15px" viewBox="0 0 22 15" version="1.1" xmlns="http://www.w3.org/2000/svg" xmlns:xlink="http://www.w3.org/1999/xlink">
    <!-- Generator: Sketch 51.2 (57519) - http://www.bohemiancoding.com/sketch -->
    <title>ic_flag_cn</title>
    <desc>Created with Sketch.</desc>
    <defs></defs>
    <g id="new" stroke="none" stroke-width="1" fill="none" fill-rule="evenodd">
        <g id="Blackjack01" transform="translate(-1059.000000, -119.000000)">
            <g id="List" transform="translate(1049.000000, 60.000000)">
                <g id="item01-copy" transform="translate(0.000000, 44.000000)">
                    <g id="ic_flag_cn" transform="translate(10.000000, 15.000000)">
                        <polygon id="Fill-1" fill="#DE2910" points="0 14.7129338 22 14.7129338 22 0 0 0"></polygon>
                        <path d="M7.54117393,6.05462203 L7.50917878,6.55148567 L7.96736526,6.73538733 L7.48943972,6.85960324 L7.45744457,7.35646688 L7.19390805,6.93407068 L6.71345738,7.05828659 L7.02872811,6.67570158 L6.76519159,6.25330538 L7.22590319,6.43720704 L7.54117393,6.05462203 Z M8.72373171,4.53418824 L8.87397648,5.00872407 L9.36908517,5.00872407 L8.97008509,5.30193573 L9.12032985,5.77634734 L8.72120659,5.48071348 L8.32208333,5.77392513 L8.47485322,5.30193573 L8.07572996,5.00872407 L8.57096183,5.00872407 L8.72373171,4.53418824 Z M9.22872534,2.5144686 L9.00451297,2.95916156 L9.35442715,3.31193474 L8.86652429,3.23246762 L8.63990998,3.67716057 L8.56350964,3.18271914 L8.07572996,3.10570528 L8.51673329,2.87972549 L8.44033295,2.38783048 L8.7877528,2.74057261 L9.22872534,2.5144686 Z M7.54369905,0.902208202 L7.51410585,1.39907184 L7.97229233,1.58284928 L7.49196484,1.70706519 L7.45984652,2.20392883 L7.19631,1.78153263 L6.71838445,1.90574854 L7.03368597,1.52328775 L6.77011866,1.10089155 L7.22830514,1.28466899 L7.54369905,0.902208202 Z M3.63151507,1.65489451 L4.0947518,3.09331474 L5.59753818,3.09331474 L4.38295445,3.98273171 L4.8460988,5.42360521 L3.63151507,4.53418824 L2.41708532,5.42360521 L2.88019887,3.98273171 L1.66561514,3.09331474 L3.16840152,3.09331474 L3.63151507,1.65489451 Z" id="Fill-2" fill="#FFDE00"></path>
                    </g>
                </g>
            </g>
        </g>
    </g>
</svg>