<?xml version="1.0" encoding="UTF-8"?>
<svg width="22px" height="15px" viewBox="0 0 22 15" version="1.1" xmlns="http://www.w3.org/2000/svg" xmlns:xlink="http://www.w3.org/1999/xlink">
    <!-- Generator: Sketch 51.2 (57519) - http://www.bohemiancoding.com/sketch -->
    <title>ic_flag_en</title>
    <desc>Created with Sketch.</desc>
    <defs></defs>
    <g id="new" stroke="none" stroke-width="1" fill="none" fill-rule="evenodd">
        <g id="Blackjack01" transform="translate(-1059.000000, -75.000000)">
            <g id="List" transform="translate(1049.000000, 60.000000)">
                <g id="item01">
                    <g id="ic_flag_en" transform="translate(10.000000, 15.000000)">
                        <polygon id="Fill-1" fill="#00458F" points="0 14.4781749 21.7172623 14.4781749 21.7172623 0 0 0"></polygon>
                        <polygon id="Fill-2" fill="#FFFFFF" points="8.68689785 0 8.68689785 5.06733204 0 5.06733204 0 9.41084283 8.68689785 9.41084283 8.68689785 14.4781749 13.0303645 14.4781749 13.0303645 9.41084283 21.7172623 9.41084283 21.7172623 5.06733204 13.0303645 5.06733204 13.0303645 0"></polygon>
                        <polygon id="Fill-3" fill="#FFFFFF" points="0 0 0 1.67402334 19.2288103 14.4781749 21.7172623 14.4781749 21.7172623 12.8041515 2.48843428 0"></polygon>
                        <polygon id="Fill-4" fill="#FFFFFF" points="19.228826 0 0 12.8041515 0 14.4781749 2.48843631 14.4781749 21.7172623 1.67402334 21.7172623 0"></polygon>
                        <polygon id="Fill-5" fill="#CC3440" points="9.59176537 0 9.59176537 5.97228977 0 5.97228977 0 8.50595579 9.59176537 8.50595579 9.59176537 14.4781749 12.1254262 14.4781749 12.1254262 8.50595579 21.7172623 8.50595579 21.7172623 5.97228977 12.1254262 5.97228977 12.1254262 0"></polygon>
                        <path d="M19.9979628,0 L13.0303645,4.61494155 L13.0303645,5.02212304 L14.1161913,5.02212304 L21.7172623,0 L19.9979628,0 Z M0,0 L0,1.13110879 L5.8817891,5.06733204 L7.60101795,5.06733204 L0,0 Z M14.1614709,9.41084283 L21.7172623,14.4329482 L21.7172623,13.3018394 L15.8807175,9.41084283 L14.1614709,9.41084283 Z M7.55579136,9.41084283 L0,14.4329482 L0,14.4781749 L1.62881102,14.4781749 L8.64167127,9.81802432 L8.64167127,9.41084283 L7.55579136,9.41084283 Z" id="Fill-6" fill="#CC3440"></path>
                    </g>
                </g>
            </g>
        </g>
    </g>
</svg>